<?xml version="1.0" encoding="UTF-8" standalone="no"?>
<!-- Created with Inkscape (http://www.inkscape.org/) -->

<svg
   xmlns:dc="http://purl.org/dc/elements/1.1/"
   xmlns:cc="http://creativecommons.org/ns#"
   xmlns:rdf="http://www.w3.org/1999/02/22-rdf-syntax-ns#"
   xmlns:svg="http://www.w3.org/2000/svg"
   xmlns="http://www.w3.org/2000/svg"
   xmlns:sodipodi="http://sodipodi.sourceforge.net/DTD/sodipodi-0.dtd"
   xmlns:inkscape="http://www.inkscape.org/namespaces/inkscape"
   width="164mm"
   height="102mm"
   viewBox="0 0 581.10223 361.41711"
   id="svg4283"
   version="1.1"
   inkscape:version="0.91 r13725"
   inkscape:export-filename="/home/firnsy/workspace/govhack/2015/wecanhelp.git/client/img/logo.png"
   inkscape:export-xdpi="19.921568"
   inkscape:export-ydpi="19.921568"
   sodipodi:docname="logo.svg">
  <defs
     id="defs4285" />
  <sodipodi:namedview
     id="base"
     pagecolor="#ffffff"
     bordercolor="#666666"
     borderopacity="1.0"
     inkscape:pageopacity="0.0"
     inkscape:pageshadow="2"
     inkscape:zoom="0.35"
     inkscape:cx="-82.142857"
     inkscape:cy="520"
     inkscape:document-units="px"
     inkscape:current-layer="layer1"
     showgrid="false"
     inkscape:window-width="1280"
     inkscape:window-height="739"
     inkscape:window-x="0"
     inkscape:window-y="24"
     inkscape:window-maximized="1" />
  <metadata
     id="metadata4288">
    <rdf:RDF>
      <cc:Work
         rdf:about="">
        <dc:format>image/svg+xml</dc:format>
        <dc:type
           rdf:resource="http://purl.org/dc/dcmitype/StillImage" />
        <dc:title></dc:title>
      </cc:Work>
    </rdf:RDF>
  </metadata>
  <g
     inkscape:label="Layer 1"
     inkscape:groupmode="layer"
     id="layer1"
     transform="translate(0,-690.94537)">
    <g
       id="g4839"
       transform="translate(0.74752833,-10.708293)">
      <path
         d="m 357.33554,904.3491 c 0,-18.64864 -15.11731,-33.76685 -33.76774,-33.76685 -18.60461,0 -33.69407,15.04633 -33.76325,33.63656 -0.0719,-18.59023 -15.16045,-33.63656 -33.76325,-33.63656 -18.65044,0 -33.77044,15.11821 -33.77044,33.76685 0,49.98758 67.2147,88.28854 67.52919,88.46735 0,0 67.53549,-38.46719 67.53549,-88.46735"
         style="fill:#ed1c24;fill-opacity:1;fill-rule:nonzero;stroke:none"
         id="path66"
         inkscape:connector-curvature="0" />
      <path
         d="m 276.9893,830.08041 c -0.61731,-0.26777 -3.97701,-1.67222 -9.49235,-3.0533 -0.0126,-0.004 -0.0269,-0.008 -0.0405,-0.0108 -7.38883,-1.84563 -19.23359,-3.77663 -33.78032,-2.52045 -22.04698,1.90224 -40.43683,14.73722 -51.57084,31.32637 -0.85452,-0.26598 -1.72792,-0.52296 -2.62019,-0.76647 l -3.29676,-101.05883 c -0.26238,-8.03489 -7.00425,-14.34635 -15.02297,-14.07409 -8.03578,0.26238 -14.33646,6.98807 -14.07408,15.02296 l 3.16381,96.98568 c -0.85722,0.0351 -1.71983,0.0791 -2.58784,0.13568 l -7.09859,-90.64546 c -0.62809,-8.01423 -7.62155,-13.99412 -15.64836,-13.37501 -8.01512,0.62719 -14.0031,7.63323 -13.3759,15.64835 l 7.37804,94.21543 c -1.08366,0.37919 -2.16911,0.78085 -3.25367,1.19957 -4.09113,-29.52116 -9.66846,-72.17474 -9.74574,-72.76509 -1.04233,-7.97109 -8.353883,-13.59336 -16.320482,-12.54744 -7.971991,1.04143 -13.589764,8.34759 -12.548337,16.31958 0.437596,3.35341 10.763804,82.31135 13.543937,98.78638 1.807896,10.7081 0.513975,19.31267 -3.642746,24.22957 -3.496283,4.13515 -9.689132,6.23149 -18.40962,6.23149 l -45.877555,-0.2372 c 0,0 0,62.39305 40.250826,62.39305 27.290051,0 56.773477,-1.14656 84.530777,0.46724 51.05507,2.96794 61.77934,10.15099 90.43789,29.34508 4.05608,2.7145 8.24874,5.5234 12.98503,8.6135 1.34964,0.8914 2.68579,1.7567 3.99858,2.5906 2.41981,1.5383 5.12267,2.2733 7.79228,2.2733 4.80098,0 9.50043,-2.374 12.27787,-6.7176 4.32116,-6.7589 2.35961,-15.7409 -4.38585,-20.08182 -1.26607,-0.81499 -2.49889,-1.61471 -3.70385,-2.40094 -30.64256,-20.23459 -67.1527,-54.20451 -67.1527,-101.16395 0,-21.30118 15.0014,-39.09079 36.48048,-40.94452 10.29656,-0.88867 18.58394,0.38908 23.8405,1.66683 l 6.79039,2.14844 c 7.38972,2.33355 15.31229,-1.52664 18.02414,-8.78518 2.71274,-7.25764 -0.73682,-15.36891 -7.8453,-18.45095 m 234.0703,89.28414 c -8.71869,0 -14.91244,-2.09634 -18.40782,-6.23149 -4.15762,-4.9169 -5.45244,-13.52147 -3.64365,-24.22957 2.78014,-16.47503 13.10545,-95.43297 13.54304,-98.78638 1.04233,-7.97199 -4.57545,-15.27815 -12.54744,-16.31958 -7.9666,-1.04592 -15.27815,4.57635 -16.32047,12.54744 -0.0782,0.59035 -5.65462,43.24393 -9.74485,72.76509 -1.08545,-0.41872 -2.17091,-0.82038 -3.25367,-1.19957 l 7.37715,-94.21543 c 0.62719,-8.01512 -5.36079,-15.02116 -13.37591,-15.64835 -8.0277,-0.61911 -15.02026,5.36078 -15.64836,13.37501 l -7.09949,90.64546 c -0.86711,-0.0566 -1.72882,-0.10064 -2.58694,-0.13568 l 3.16381,-96.98568 c 0.26328,-8.03489 -6.03919,-14.76058 -14.07318,-15.02296 -8.02052,-0.27226 -14.76148,6.0392 -15.02476,14.07409 l -3.2968,101.05883 c -0.89227,0.24351 -1.76567,0.50049 -2.62019,0.76647 -11.13312,-16.58915 -29.52297,-29.42413 -51.56994,-31.32637 -14.54763,-1.25618 -26.3915,0.67482 -33.78032,2.52045 -0.0135,0.003 -0.027,0.007 -0.0405,0.0108 -5.51623,1.38108 -8.87593,2.78553 -9.49234,3.0533 -7.10938,3.08204 -10.55804,11.19331 -7.8462,18.45095 2.71364,7.25854 10.63532,11.11873 18.02504,8.78518 l 6.78949,-2.14844 c 5.25745,-1.27775 13.54484,-2.5555 23.84139,-1.66683 21.47909,1.85373 36.48049,19.64334 36.48049,40.94452 0,46.95944 -36.51104,80.92936 -67.1527,101.16395 -1.20497,0.78623 -2.43779,1.58595 -3.70295,2.40094 -6.74636,4.3409 -8.70881,13.3229 -4.38586,20.0818 2.77654,4.3436 7.47599,6.7176 12.27698,6.7176 2.67051,0 5.37157,-0.735 7.79228,-2.2733 1.31279,-0.8339 2.64804,-1.6992 3.99857,-2.5906 4.73629,-3.0901 8.92896,-5.899 12.98414,-8.6135 28.66035,-19.19407 39.38282,-26.37712 90.43878,-29.34506 27.75641,-1.6138 57.24163,-0.46724 84.53168,-0.46724 40.25083,0 40.25083,-62.39305 40.25083,-62.39305 l -45.87939,0.23722 z"
         style="fill:#58595b;fill-opacity:1;fill-rule:nonzero;stroke:none"
         id="path70"
         inkscape:connector-curvature="0" />
    </g>
  </g>
</svg>
